<?xml version="1.0" ?><!DOCTYPE svg  PUBLIC '-//W3C//DTD SVG 1.1//EN'  'http://www.w3.org/Graphics/SVG/1.1/DTD/svg11.dtd'><svg enable-background="new 0 0 24 24" height="24px" id="Layer_1" version="1.1" viewBox="0 0 24 24" width="24px" xml:space="preserve" xmlns="http://www.w3.org/2000/svg" xmlns:xlink="http://www.w3.org/1999/xlink"><path d="M12,5.749c1.416,0,2.569-1.153,2.569-2.569S13.416,0.61,12,0.61c-1.417,0-2.57,1.153-2.57,2.569S10.583,5.749,12,5.749z   M12,1.61c0.865,0,1.569,0.704,1.569,1.569S12.865,4.749,12,4.749s-1.57-0.704-1.57-1.569S11.135,1.61,12,1.61z"/><path d="M9.43,15.467c0,1.417,1.153,2.57,2.57,2.57c1.416,0,2.569-1.153,2.569-2.57c0-1.416-1.153-2.569-2.569-2.569  C10.583,12.898,9.43,14.051,9.43,15.467z M13.569,15.467c0,0.865-0.704,1.57-1.569,1.57s-1.57-0.705-1.57-1.57  s0.705-1.568,1.57-1.568S13.569,14.602,13.569,15.467z"/><path d="M13.48,18.401l-2.943,0.001c-0.095-0.008-0.939-0.018-1.57,0.589c-0.415,0.399-0.625,0.954-0.625,1.649v2.249  c0,0.276,0.224,0.5,0.5,0.5s0.5-0.224,0.5-0.5v-2.249c0-0.41,0.105-0.721,0.313-0.924c0.329-0.322,0.842-0.316,0.863-0.315  L13.5,19.4c0.004,0,0.514-0.002,0.838,0.311c0.211,0.203,0.318,0.517,0.318,0.93v2.249c0,0.276,0.224,0.5,0.5,0.5s0.5-0.224,0.5-0.5  v-2.249c0-0.695-0.21-1.25-0.625-1.649C14.401,18.385,13.555,18.394,13.48,18.401z"/><path d="M19.853,18.037c1.417,0,2.569-1.153,2.569-2.57c0-1.416-1.152-2.569-2.569-2.569s-2.569,1.153-2.569,2.569  C17.283,16.884,18.436,18.037,19.853,18.037z M19.853,13.898c0.866,0,1.569,0.703,1.569,1.568s-0.703,1.57-1.569,1.57  c-0.865,0-1.569-0.705-1.569-1.57S18.987,13.898,19.853,13.898z"/><path d="M21.334,18.401l-2.943,0.001c-0.093-0.008-0.939-0.018-1.57,0.589c-0.414,0.399-0.624,0.954-0.624,1.649v2.249  c0,0.276,0.224,0.5,0.5,0.5s0.5-0.224,0.5-0.5v-2.249c0-0.41,0.105-0.721,0.313-0.924c0.329-0.322,0.842-0.316,0.862-0.315h2.978  c0.01,0.006,0.519-0.007,0.848,0.315c0.207,0.203,0.313,0.514,0.313,0.924v2.249c0,0.276,0.224,0.5,0.5,0.5s0.5-0.224,0.5-0.5  v-2.249c0-0.695-0.21-1.25-0.625-1.649C22.255,18.385,21.408,18.394,21.334,18.401z"/><path d="M4.146,18.037c1.417,0,2.57-1.153,2.57-2.57c0-1.416-1.153-2.569-2.57-2.569c-1.417,0-2.569,1.153-2.569,2.569  C1.577,16.884,2.729,18.037,4.146,18.037z M4.146,13.898c0.866,0,1.57,0.703,1.57,1.568s-0.704,1.57-1.57,1.57  c-0.865,0-1.569-0.705-1.569-1.57S3.281,13.898,4.146,13.898z"/><path d="M5.627,18.401l-2.943,0.001c-0.098-0.008-0.94-0.018-1.569,0.589C0.7,19.391,0.49,19.945,0.49,20.641v2.249  c0,0.276,0.224,0.5,0.5,0.5s0.5-0.224,0.5-0.5v-2.249c0-0.41,0.105-0.721,0.313-0.924c0.329-0.322,0.841-0.316,0.862-0.315h2.978  c0.012,0.006,0.519-0.007,0.848,0.315c0.208,0.203,0.313,0.514,0.313,0.924v2.249c0,0.276,0.224,0.5,0.5,0.5s0.5-0.224,0.5-0.5  v-2.249c0-0.695-0.21-1.25-0.625-1.649C6.548,18.385,5.7,18.394,5.627,18.401z"/><path d="M7.303,12.621h9.393c0.276,0,0.5-0.224,0.5-0.5v-1.519c0-0.276-0.224-0.5-0.5-0.5h-0.528V8.354  c0-0.696-0.211-1.251-0.625-1.65c-0.631-0.606-1.476-0.596-1.57-0.589c-0.113,0.004-0.223,0.047-0.309,0.122L12,7.681l-1.664-1.445  c-0.086-0.075-0.195-0.118-0.309-0.122c-0.096-0.007-0.94-0.017-1.571,0.589c-0.415,0.399-0.625,0.954-0.625,1.65v1.749H7.303  c-0.276,0-0.5,0.224-0.5,0.5v1.519C6.803,12.397,7.027,12.621,7.303,12.621z M8.832,8.354c0-0.41,0.105-0.721,0.313-0.924  c0.216-0.212,0.511-0.282,0.688-0.305l1.838,1.596c0.188,0.163,0.468,0.163,0.655,0l1.839-1.596  c0.179,0.023,0.473,0.093,0.688,0.304c0.208,0.203,0.313,0.514,0.313,0.924v1.749H8.832V8.354z M7.803,11.102h8.393v0.519H7.803  V11.102z"/></svg>